<?xml version="1.0" encoding="UTF-8"?>
<!DOCTYPE svg PUBLIC "-//W3C//DTD SVG 1.1//EN" "http://www.w3.org/Graphics/SVG/1.1/DTD/svg11.dtd">
<svg xmlns="http://www.w3.org/2000/svg" version="1.1" width="305px" height="285px" style="shape-rendering:geometricPrecision; text-rendering:geometricPrecision; image-rendering:optimizeQuality; fill-rule:evenodd; clip-rule:evenodd" xmlns:xlink="http://www.w3.org/1999/xlink">
<g><path style="opacity:0.999" fill="#b06aec" d="M 259.5,17.5 C 259.833,17.5 260.167,17.5 260.5,17.5C 272.678,17.1716 284.678,17.5049 296.5,18.5C 278.712,17.8753 261.046,18.8753 243.5,21.5C 248.811,20.0747 254.144,18.7414 259.5,17.5 Z"/></g>
<g><path style="opacity:1" fill="#f46703" d="M 12.5,18.5 C 26.1789,18.443 39.8455,18.7763 53.5,19.5C 55.9653,19.767 58.2986,20.4336 60.5,21.5C 65.6041,23.6203 70.9374,25.4537 76.5,27C 75.5419,28.1475 75.8753,29.1475 77.5,30C 75.2053,30.9836 75.5386,31.8169 78.5,32.5C 82.0508,30.4526 85.7174,30.1192 89.5,31.5C 91.1596,34.6262 93.8263,36.2928 97.5,36.5C 104.383,40.0513 110.383,44.718 115.5,50.5C 115.92,52.0936 116.586,53.5936 117.5,55C 117.167,56 116.833,57 116.5,58C 118.899,58.841 121.232,60.341 123.5,62.5C 124.298,64.0777 124.798,65.7444 125,67.5C 125.671,68.2524 126.504,68.5858 127.5,68.5C 129.167,70.1667 130.833,71.8333 132.5,73.5C 132.694,76.3297 133.361,78.9963 134.5,81.5C 135.47,93.4145 137.637,105.081 141,116.5C 141.667,117.167 142.333,117.833 143,118.5C 143.5,130.162 143.667,141.829 143.5,153.5C 129.176,152.857 114.842,152.524 100.5,152.5C 95.109,151.755 89.7756,150.755 84.5,149.5C 83.1667,149.5 81.8333,149.5 80.5,149.5C 77.3703,147.977 74.037,147.311 70.5,147.5C 70.5,147.167 70.5,146.833 70.5,146.5C 68.9674,144.755 66.9674,143.755 64.5,143.5C 62.847,143.34 61.5137,142.674 60.5,141.5C 58.3374,139.917 56.0041,138.584 53.5,137.5C 51.7772,135.782 49.7772,134.449 47.5,133.5C 45.7607,130.757 43.4274,128.757 40.5,127.5C 30.1162,118.783 22.4495,108.117 17.5,95.5C 15.4035,87.8359 13.2368,80.1693 11,72.5C 9.97861,70.0297 8.81195,67.6964 7.5,65.5C 7.5,64.8333 7.5,64.1667 7.5,63.5C 6.8182,50.8364 6.65154,38.1698 7,25.5C 7.33333,23.8333 7.66667,22.1667 8,20.5C 9.62247,19.9011 11.1225,19.2344 12.5,18.5 Z"/></g>
<g><path style="opacity:0.584" fill="#e6bdf9" d="M 259.5,17.5 C 254.144,18.7414 248.811,20.0747 243.5,21.5C 239.538,22.3755 235.538,23.0422 231.5,23.5C 240.388,19.9483 249.722,17.9483 259.5,17.5 Z"/></g>
<g><path style="opacity:1" fill="#a756ed" d="M 243.5,21.5 C 237.554,25.4712 230.887,27.8045 223.5,28.5C 226.167,26.8333 228.833,25.1667 231.5,23.5C 235.538,23.0422 239.538,22.3755 243.5,21.5 Z"/></g>
<g><path style="opacity:1" fill="#ee7321" d="M 60.5,21.5 C 62.5273,21.3379 64.5273,21.5045 66.5,22C 73.8458,24.3932 81.1792,26.8932 88.5,29.5C 88.8333,30.1667 89.1667,30.8333 89.5,31.5C 85.7174,30.1192 82.0508,30.4526 78.5,32.5C 75.5386,31.8169 75.2053,30.9836 77.5,30C 75.8753,29.1475 75.5419,28.1475 76.5,27C 70.9374,25.4537 65.6041,23.6203 60.5,21.5 Z"/></g>
<g><path style="opacity:1" fill="#a747f8" d="M 296.5,18.5 C 296.821,20.0481 297.821,20.7148 299.5,20.5C 299.5,25.8333 299.5,31.1667 299.5,36.5C 298.022,49.1694 296.356,61.8361 294.5,74.5C 294.5,76.1667 294.5,77.8333 294.5,79.5C 293.239,81.2904 291.739,82.9571 290,84.5C 288.52,89.438 287.353,94.438 286.5,99.5C 284.468,100.048 283.468,101.381 283.5,103.5C 282.108,106.007 281.108,108.673 280.5,111.5C 276.294,113.023 273.461,116.023 272,120.5C 268.175,123.624 264.675,127.124 261.5,131C 257.288,134.274 252.622,136.774 247.5,138.5C 244.031,137.887 242.031,139.221 241.5,142.5C 237.609,143.502 233.609,144.335 229.5,145C 228.177,145.816 227.511,146.983 227.5,148.5C 226.833,148.5 226.167,148.5 225.5,148.5C 222.918,148.025 220.918,148.692 219.5,150.5C 216.417,150.916 213.417,151.583 210.5,152.5C 194.159,153.667 177.826,153.667 161.5,152.5C 161.5,139.167 161.5,125.833 161.5,112.5C 164.441,103.299 167.107,93.9653 169.5,84.5C 171.721,78.5964 174.388,72.9297 177.5,67.5C 181.646,65.0054 184.312,61.3387 185.5,56.5C 188.898,51.5937 192.898,47.0937 197.5,43C 201.597,40.6304 205.264,37.7971 208.5,34.5C 213.613,32.7768 218.613,30.7768 223.5,28.5C 230.887,27.8045 237.554,25.4712 243.5,21.5C 261.046,18.8753 278.712,17.8753 296.5,18.5 Z"/></g>
<g><path style="opacity:0.937" fill="#d1a0f5" d="M 231.5,23.5 C 228.833,25.1667 226.167,26.8333 223.5,28.5C 218.613,30.7768 213.613,32.7768 208.5,34.5C 215.469,29.5166 223.136,25.8499 231.5,23.5 Z"/></g>
<g><path style="opacity:0.353" fill="#fbcfad" d="M 88.5,29.5 C 101.192,34.5339 111.525,42.5339 119.5,53.5C 118.167,52.5 116.833,51.5 115.5,50.5C 110.383,44.718 104.383,40.0513 97.5,36.5C 95.3379,34.1029 92.6712,32.4362 89.5,31.5C 89.1667,30.8333 88.8333,30.1667 88.5,29.5 Z"/></g>
<g><path style="opacity:1" fill="#e7782f" d="M 89.5,31.5 C 92.6712,32.4362 95.3379,34.1029 97.5,36.5C 93.8263,36.2928 91.1596,34.6262 89.5,31.5 Z"/></g>
<g><path style="opacity:1" fill="#ab62e9" d="M 296.5,18.5 C 297.822,18.33 298.989,18.6634 300,19.5C 300.825,30.0083 300.659,40.3416 299.5,50.5C 299.5,45.8333 299.5,41.1667 299.5,36.5C 299.5,31.1667 299.5,25.8333 299.5,20.5C 297.821,20.7148 296.821,20.0481 296.5,18.5 Z"/></g>
<g><path style="opacity:1" fill="#ec7626" d="M 12.5,18.5 C 11.1225,19.2344 9.62247,19.9011 8,20.5C 7.66667,22.1667 7.33333,23.8333 7,25.5C 6.65154,38.1698 6.8182,50.8364 7.5,63.5C 4.8854,49.0995 3.8854,34.4329 4.5,19.5C 7.12717,18.9084 9.79384,18.5751 12.5,18.5 Z"/></g>
<g><path style="opacity:0.545" fill="#e4c4fa" d="M 298.5,67.5 C 298.5,66.1667 298.5,64.8333 298.5,63.5C 298.739,59.1578 299.073,54.8244 299.5,50.5C 300.659,40.3416 300.825,30.0083 300,19.5C 298.989,18.6634 297.822,18.33 296.5,18.5C 284.678,17.5049 272.678,17.1716 260.5,17.5C 272.98,15.0688 285.647,14.9021 298.5,17C 299.416,17.3742 300.25,17.8742 301,18.5C 303.187,35.111 302.354,51.4443 298.5,67.5 Z"/></g>
<g><path style="opacity:0.557" fill="#e5bdfc" d="M 208.5,34.5 C 205.264,37.7971 201.597,40.6304 197.5,43C 192.898,47.0937 188.898,51.5937 185.5,56.5C 183.833,57.8333 182.167,59.1667 180.5,60.5C 187.597,49.4021 196.93,40.7354 208.5,34.5 Z"/></g>
<g><path style="opacity:0.525" fill="#fed3ad" d="M 119.5,53.5 C 121.587,54.5846 122.92,56.2512 123.5,58.5C 121.413,57.4154 120.08,55.7488 119.5,53.5 Z"/></g>
<g><path style="opacity:1" fill="#ef7524" d="M 115.5,50.5 C 116.833,51.5 118.167,52.5 119.5,53.5C 120.08,55.7488 121.413,57.4154 123.5,58.5C 123.427,60.0269 124.094,61.0269 125.5,61.5C 125.427,63.0269 126.094,64.0269 127.5,64.5C 127.5,65.1667 127.5,65.8333 127.5,66.5C 127.5,67.1667 127.5,67.8333 127.5,68.5C 126.504,68.5858 125.671,68.2524 125,67.5C 124.798,65.7444 124.298,64.0777 123.5,62.5C 121.232,60.341 118.899,58.841 116.5,58C 116.833,57 117.167,56 117.5,55C 116.586,53.5936 115.92,52.0936 115.5,50.5 Z"/></g>
<g><path style="opacity:1" fill="#a750f0" d="M 299.5,36.5 C 299.5,41.1667 299.5,45.8333 299.5,50.5C 299.073,54.8244 298.739,59.1578 298.5,63.5C 296.926,65.1016 296.259,67.1016 296.5,69.5C 296.5,70.8333 296.5,72.1667 296.5,73.5C 295.833,73.8333 295.167,74.1667 294.5,74.5C 296.356,61.8361 298.022,49.1694 299.5,36.5 Z"/></g>
<g><path style="opacity:0.255" fill="#ffd4b7" d="M 123.5,58.5 C 124.906,58.9731 125.573,59.9731 125.5,61.5C 124.094,61.0269 123.427,60.0269 123.5,58.5 Z"/></g>
<g><path style="opacity:0.208" fill="#f5d7ff" d="M 180.5,60.5 C 180.573,62.0269 179.906,63.0269 178.5,63.5C 178.427,61.9731 179.094,60.9731 180.5,60.5 Z"/></g>
<g><path style="opacity:1" fill="#a85ce8" d="M 185.5,56.5 C 184.312,61.3387 181.646,65.0054 177.5,67.5C 177.833,66.1667 178.167,64.8333 178.5,63.5C 179.906,63.0269 180.573,62.0269 180.5,60.5C 182.167,59.1667 183.833,57.8333 185.5,56.5 Z"/></g>
<g><path style="opacity:0.267" fill="#ffd2b2" d="M 125.5,61.5 C 126.906,61.9731 127.573,62.9731 127.5,64.5C 126.094,64.0269 125.427,63.0269 125.5,61.5 Z"/></g>
<g><path style="opacity:0.173" fill="#f3d4ff" d="M 178.5,63.5 C 178.167,64.8333 177.833,66.1667 177.5,67.5C 176.833,67.8333 176.167,68.1667 175.5,68.5C 175.75,66.326 176.75,64.6594 178.5,63.5 Z"/></g>
<g><path style="opacity:0.192" fill="#ffddc1" d="M 127.5,64.5 C 128.906,64.9731 129.573,65.9731 129.5,67.5C 128.833,67.1667 128.167,66.8333 127.5,66.5C 127.5,65.8333 127.5,65.1667 127.5,64.5 Z"/></g>
<g><path style="opacity:0.831" fill="#f7ab77" d="M 127.5,66.5 C 128.167,66.8333 128.833,67.1667 129.5,67.5C 131.346,69.0301 132.346,71.0301 132.5,73.5C 130.833,71.8333 129.167,70.1667 127.5,68.5C 127.5,67.8333 127.5,67.1667 127.5,66.5 Z"/></g>
<g><path style="opacity:0.886" fill="#bc7fed" d="M 298.5,63.5 C 298.5,64.8333 298.5,66.1667 298.5,67.5C 297.833,68.1667 297.167,68.8333 296.5,69.5C 296.259,67.1016 296.926,65.1016 298.5,63.5 Z"/></g>
<g><path style="opacity:0.933" fill="#cd97f2" d="M 177.5,67.5 C 174.388,72.9297 171.721,78.5964 169.5,84.5C 169.167,84.5 168.833,84.5 168.5,84.5C 168.5,83.8333 168.5,83.1667 168.5,82.5C 169.799,77.2361 172.132,72.5694 175.5,68.5C 176.167,68.1667 176.833,67.8333 177.5,67.5 Z"/></g>
<g><path style="opacity:0.329" fill="#e5c3f5" d="M 298.5,67.5 C 298.706,70.4951 298.04,73.1617 296.5,75.5C 296.5,74.8333 296.5,74.1667 296.5,73.5C 296.5,72.1667 296.5,70.8333 296.5,69.5C 297.167,68.8333 297.833,68.1667 298.5,67.5 Z"/></g>
<g><path style="opacity:1" fill="#ec7b2e" d="M 7.5,65.5 C 8.81195,67.6964 9.97861,70.0297 11,72.5C 13.2368,80.1693 15.4035,87.8359 17.5,95.5C 12.0285,86.3088 8.69512,76.3088 7.5,65.5 Z"/></g>
<g><path style="opacity:0.976" fill="#c89bee" d="M 296.5,73.5 C 296.5,74.1667 296.5,74.8333 296.5,75.5C 296.768,77.099 296.434,78.4324 295.5,79.5C 295.167,79.5 294.833,79.5 294.5,79.5C 294.5,77.8333 294.5,76.1667 294.5,74.5C 295.167,74.1667 295.833,73.8333 296.5,73.5 Z"/></g>
<g><path style="opacity:0.675" fill="#f7bd95" d="M 132.5,73.5 C 136.172,78.5235 138.505,84.1902 139.5,90.5C 138.101,87.3707 136.435,84.3707 134.5,81.5C 133.361,78.9963 132.694,76.3297 132.5,73.5 Z"/></g>
<g><path style="opacity:0.357" fill="#ecc6ff" d="M 294.5,79.5 C 294.833,79.5 295.167,79.5 295.5,79.5C 295.405,81.7857 294.738,83.7857 293.5,85.5C 293.517,83.4352 293.85,81.4352 294.5,79.5 Z"/></g>
<g><path style="opacity:0.494" fill="#e9c6fd" d="M 168.5,82.5 C 168.5,83.1667 168.5,83.8333 168.5,84.5C 166.867,90.4035 164.867,96.0702 162.5,101.5C 163.724,94.8327 165.724,88.4993 168.5,82.5 Z"/></g>
<g><path style="opacity:1" fill="#b371ee" d="M 168.5,84.5 C 168.833,84.5 169.167,84.5 169.5,84.5C 167.107,93.9653 164.441,103.299 161.5,112.5C 161.167,112.5 160.833,112.5 160.5,112.5C 160.659,108.709 161.325,105.042 162.5,101.5C 164.867,96.0702 166.867,90.4035 168.5,84.5 Z"/></g>
<g><path style="opacity:0.271" fill="#eacdfe" d="M 293.5,85.5 C 292.737,89.1368 291.403,92.4701 289.5,95.5C 289.752,91.6733 291.085,88.3399 293.5,85.5 Z"/></g>
<g><path style="opacity:1" fill="#b971f1" d="M 294.5,79.5 C 293.85,81.4352 293.517,83.4352 293.5,85.5C 291.085,88.3399 289.752,91.6733 289.5,95.5C 289.34,97.153 288.674,98.4863 287.5,99.5C 287.167,99.5 286.833,99.5 286.5,99.5C 287.353,94.438 288.52,89.438 290,84.5C 291.739,82.9571 293.239,81.2904 294.5,79.5 Z"/></g>
<g><path style="opacity:0.518" fill="#fccfab" d="M 139.5,90.5 C 141.277,93.5046 142.277,96.8379 142.5,100.5C 141.5,98.5 140.5,96.5 139.5,94.5C 139.5,93.1667 139.5,91.8333 139.5,90.5 Z"/></g>
<g><path style="opacity:1" fill="#ce91f0" d="M 286.5,99.5 C 286.833,99.5 287.167,99.5 287.5,99.5C 287.34,101.153 286.674,102.486 285.5,103.5C 284.833,103.5 284.167,103.5 283.5,103.5C 283.468,101.381 284.468,100.048 286.5,99.5 Z"/></g>
<g><path style="opacity:0.224" fill="#fdd4b3" d="M 88.5,29.5 C 81.1792,26.8932 73.8458,24.3932 66.5,22C 64.5273,21.5045 62.5273,21.3379 60.5,21.5C 58.2986,20.4336 55.9653,19.767 53.5,19.5C 45.3836,18.0202 37.0503,17.3536 28.5,17.5C 22.9892,17.5006 17.6559,17.8339 12.5,18.5C 9.79384,18.5751 7.12717,18.9084 4.5,19.5C 3.8854,34.4329 4.8854,49.0995 7.5,63.5C 7.5,64.1667 7.5,64.8333 7.5,65.5C 8.69512,76.3088 12.0285,86.3088 17.5,95.5C 22.4495,108.117 30.1162,118.783 40.5,127.5C 42.1667,129.5 43.8333,131.5 45.5,133.5C 30.0039,121.892 18.8372,106.892 12,88.5C 4.07148,65.7407 1.40481,42.4074 4,18.5C 28.8583,13.9329 53.3583,15.7662 77.5,24C 81.5067,25.3366 85.1733,27.1699 88.5,29.5 Z"/></g>
<g><path style="opacity:0.967" fill="#ed8840" d="M 12.5,18.5 C 17.6559,17.8339 22.9892,17.5006 28.5,17.5C 37.0503,17.3536 45.3836,18.0202 53.5,19.5C 39.8455,18.7763 26.1789,18.443 12.5,18.5 Z"/></g>
<g><path style="opacity:1" fill="#f0904f" d="M 139.5,94.5 C 140.5,96.5 141.5,98.5 142.5,100.5C 143.657,103.273 144.324,106.273 144.5,109.5C 144.5,112.167 144.5,114.833 144.5,117.5C 142.114,110.1 140.448,102.433 139.5,94.5 Z"/></g>
<g><path style="opacity:0.039" fill="#dfbbfa" d="M 283.5,103.5 C 284.167,103.5 284.833,103.5 285.5,103.5C 284.331,106.511 282.664,109.178 280.5,111.5C 281.108,108.673 282.108,106.007 283.5,103.5 Z"/></g>
<g><path style="opacity:0.565" fill="#fcd2b1" d="M 144.5,109.5 C 145.806,114.616 146.473,119.949 146.5,125.5C 145.833,123.167 145.167,120.833 144.5,118.5C 144.5,118.167 144.5,117.833 144.5,117.5C 144.5,114.833 144.5,112.167 144.5,109.5 Z"/></g>
<g><path style="opacity:0.906" fill="#f09b60" d="M 40.5,127.5 C 43.4274,128.757 45.7607,130.757 47.5,133.5C 46.8333,133.5 46.1667,133.5 45.5,133.5C 43.8333,131.5 42.1667,129.5 40.5,127.5 Z"/></g>
<g><path style="opacity:1" fill="#ee6e18" d="M 134.5,81.5 C 136.435,84.3707 138.101,87.3707 139.5,90.5C 139.5,91.8333 139.5,93.1667 139.5,94.5C 140.448,102.433 142.114,110.1 144.5,117.5C 144.5,117.833 144.5,118.167 144.5,118.5C 145.696,130.185 145.696,141.851 144.5,153.5C 131.633,155.581 118.633,155.914 105.5,154.5C 103.833,153.833 102.167,153.167 100.5,152.5C 114.842,152.524 129.176,152.857 143.5,153.5C 143.667,141.829 143.5,130.162 143,118.5C 142.333,117.833 141.667,117.167 141,116.5C 137.637,105.081 135.47,93.4145 134.5,81.5 Z"/></g>
<g><path style="opacity:0.431" fill="#ddb0f9" d="M 280.5,111.5 C 271.138,126.204 258.471,136.871 242.5,143.5C 243.973,141.605 245.64,139.939 247.5,138.5C 252.622,136.774 257.288,134.274 261.5,131C 264.675,127.124 268.175,123.624 272,120.5C 273.461,116.023 276.294,113.023 280.5,111.5 Z"/></g>
<g><path style="opacity:0.18" fill="#ffe7cc" d="M 45.5,133.5 C 46.1667,133.5 46.8333,133.5 47.5,133.5C 48.1667,134.5 48.8333,135.5 49.5,136.5C 47.5956,136.262 46.2623,135.262 45.5,133.5 Z"/></g>
<g><path style="opacity:0.773" fill="#f9b47d" d="M 47.5,133.5 C 49.7772,134.449 51.7772,135.782 53.5,137.5C 52.8333,137.5 52.1667,137.5 51.5,137.5C 50.5084,137.672 49.8417,137.338 49.5,136.5C 48.8333,135.5 48.1667,134.5 47.5,133.5 Z"/></g>
<g><path style="opacity:0.122" fill="#ffe8d2" d="M 51.5,137.5 C 52.1667,137.5 52.8333,137.5 53.5,137.5C 53.8333,138.167 54.1667,138.833 54.5,139.5C 52.9731,139.573 51.9731,138.906 51.5,137.5 Z"/></g>
<g><path style="opacity:0.749" fill="#f9b78b" d="M 53.5,137.5 C 56.0041,138.584 58.3374,139.917 60.5,141.5C 59.8333,141.5 59.1667,141.5 58.5,141.5C 56.847,141.34 55.5137,140.674 54.5,139.5C 54.1667,138.833 53.8333,138.167 53.5,137.5 Z"/></g>
<g><path style="opacity:0.68" fill="#fbbc8b" d="M 144.5,118.5 C 145.167,120.833 145.833,123.167 146.5,125.5C 147.788,134.295 147.788,142.962 146.5,151.5C 145.833,152.167 145.167,152.833 144.5,153.5C 145.696,141.851 145.696,130.185 144.5,118.5 Z"/></g>
<g><path style="opacity:0.09" fill="#ffe4ce" d="M 58.5,141.5 C 59.1667,141.5 59.8333,141.5 60.5,141.5C 61.5137,142.674 62.847,143.34 64.5,143.5C 64.8333,144.167 65.1667,144.833 65.5,145.5C 62.6689,144.921 60.3356,143.588 58.5,141.5 Z"/></g>
<g><path style="opacity:1" fill="#a959ed" d="M 247.5,138.5 C 245.64,139.939 243.973,141.605 242.5,143.5C 237.574,145.364 232.574,147.031 227.5,148.5C 227.511,146.983 228.177,145.816 229.5,145C 233.609,144.335 237.609,143.502 241.5,142.5C 242.031,139.221 244.031,137.887 247.5,138.5 Z"/></g>
<g><path style="opacity:0.11" fill="#feddc3" d="M 65.5,145.5 C 67.2161,145.629 68.8828,145.962 70.5,146.5C 70.5,146.833 70.5,147.167 70.5,147.5C 68.4471,147.598 66.7804,146.931 65.5,145.5 Z"/></g>
<g><path style="opacity:0.745" fill="#f2a267" d="M 64.5,143.5 C 66.9674,143.755 68.9674,144.755 70.5,146.5C 68.8828,145.962 67.2161,145.629 65.5,145.5C 65.1667,144.833 64.8333,144.167 64.5,143.5 Z"/></g>
<g><path style="opacity:0.251" fill="#e6bcfc" d="M 160.5,113.5 C 159.314,127.18 159.314,140.847 160.5,154.5C 161.791,154.263 162.791,154.596 163.5,155.5C 161.856,155.714 160.356,155.38 159,154.5C 158.73,151.776 158.23,149.109 157.5,146.5C 158.029,135.332 159.029,124.332 160.5,113.5 Z"/></g>
<g><path style="opacity:1" fill="#ac65ec" d="M 225.5,148.5 C 224.713,150.104 223.38,150.771 221.5,150.5C 220.833,150.5 220.167,150.5 219.5,150.5C 220.918,148.692 222.918,148.025 225.5,148.5 Z"/></g>
<g><path style="opacity:0.031" fill="#eecdfd" d="M 242.5,143.5 C 236.205,147.714 229.205,150.381 221.5,151.5C 221.5,151.167 221.5,150.833 221.5,150.5C 223.38,150.771 224.713,150.104 225.5,148.5C 226.167,148.5 226.833,148.5 227.5,148.5C 232.574,147.031 237.574,145.364 242.5,143.5 Z"/></g>
<g><path style="opacity:0.322" fill="#ffd7b7" d="M 70.5,147.5 C 74.037,147.311 77.3703,147.977 80.5,149.5C 81.5,150.167 82.5,150.833 83.5,151.5C 78.8354,150.943 74.5021,149.61 70.5,147.5 Z"/></g>
<g><path style="opacity:0.914" fill="#eca06a" d="M 80.5,149.5 C 81.8333,149.5 83.1667,149.5 84.5,149.5C 85.5,150.167 86.5,150.833 87.5,151.5C 86.1667,151.5 84.8333,151.5 83.5,151.5C 82.5,150.833 81.5,150.167 80.5,149.5 Z"/></g>
<g><path style="opacity:1" fill="#ed8541" d="M 84.5,149.5 C 89.7756,150.755 95.109,151.755 100.5,152.5C 102.167,153.167 103.833,153.833 105.5,154.5C 102.5,154.5 99.5,154.5 96.5,154.5C 93.6324,153.36 90.6324,152.36 87.5,151.5C 86.5,150.833 85.5,150.167 84.5,149.5 Z"/></g>
<g><path style="opacity:0.757" fill="#d8a8f6" d="M 219.5,150.5 C 220.167,150.5 220.833,150.5 221.5,150.5C 221.5,150.833 221.5,151.167 221.5,151.5C 218.781,152.913 215.781,153.58 212.5,153.5C 211.833,153.5 211.167,153.5 210.5,153.5C 210.5,153.167 210.5,152.833 210.5,152.5C 213.417,151.583 216.417,150.916 219.5,150.5 Z"/></g>
<g><path style="opacity:0.137" fill="#ffe3d1" d="M 83.5,151.5 C 84.8333,151.5 86.1667,151.5 87.5,151.5C 90.6324,152.36 93.6324,153.36 96.5,154.5C 91.8485,154.373 87.5152,153.373 83.5,151.5 Z"/></g>
<g><path style="opacity:1" fill="#b56cee" d="M 160.5,112.5 C 160.833,112.5 161.167,112.5 161.5,112.5C 161.5,125.833 161.5,139.167 161.5,152.5C 177.826,153.667 194.159,153.667 210.5,152.5C 210.5,152.833 210.5,153.167 210.5,153.5C 205.878,153.156 201.545,153.823 197.5,155.5C 186.265,156.819 174.931,156.819 163.5,155.5C 162.791,154.596 161.791,154.263 160.5,154.5C 159.314,140.847 159.314,127.18 160.5,113.5C 160.5,113.167 160.5,112.833 160.5,112.5 Z"/></g>
<g><path style="opacity:0.169" fill="#e3bdfa" d="M 210.5,153.5 C 211.167,153.5 211.833,153.5 212.5,153.5C 207.75,155.031 202.75,155.698 197.5,155.5C 201.545,153.823 205.878,153.156 210.5,153.5 Z"/></g>
<g><path style="opacity:0.325" fill="#fed7b8" d="M 146.5,151.5 C 146.78,154.388 145.447,155.888 142.5,156C 126.98,157.662 111.646,157.162 96.5,154.5C 99.5,154.5 102.5,154.5 105.5,154.5C 118.633,155.914 131.633,155.581 144.5,153.5C 145.167,152.833 145.833,152.167 146.5,151.5 Z"/></g>
<g><path style="opacity:0.195" fill="#c0dcfe" d="M 242.5,175.5 C 239.164,173.828 235.83,172.162 232.5,170.5C 232.047,169.542 231.381,168.708 230.5,168C 227.721,167.439 225.054,166.606 222.5,165.5C 213.437,161.685 204.103,160.685 194.5,162.5C 191.833,162.5 189.167,162.5 186.5,162.5C 201.861,158.858 216.861,160.358 231.5,167C 235.597,169.37 239.264,172.203 242.5,175.5 Z"/></g>
<g><path style="opacity:0.618" fill="#f9e2a2" d="M 144.5,175.5 C 139.105,172.967 133.771,170.133 128.5,167C 104.54,158.734 82.5402,162.067 62.5,177C 57.9676,182.362 53.301,187.528 48.5,192.5C 60.7858,171.844 79.1191,161.178 103.5,160.5C 119.029,160.78 132.696,165.78 144.5,175.5 Z"/></g>
<g><path style="opacity:1" fill="#5491ec" d="M 194.5,162.5 C 204.103,160.685 213.437,161.685 222.5,165.5C 213.125,164.461 203.792,163.461 194.5,162.5 Z"/></g>
<g><path style="opacity:1" fill="#297ef9" d="M 232.5,170.5 C 232.904,171.756 233.571,172.923 234.5,174C 234.355,174.772 234.022,175.439 233.5,176C 235.305,177.441 237.305,177.608 239.5,176.5C 239.5,177.5 239.5,178.5 239.5,179.5C 244.117,179.357 244.784,181.024 241.5,184.5C 244.209,186.21 246.209,188.544 247.5,191.5C 248.695,189.703 250.362,188.703 252.5,188.5C 252.933,191.166 253.433,193.832 254,196.5C 255.011,197.337 256.178,197.67 257.5,197.5C 257.955,199.367 258.622,201.2 259.5,203C 258.415,207.42 259.582,211.254 263,214.5C 263.915,220.944 263.581,227.277 262,233.5C 260.847,230.289 260.18,226.956 260,223.5C 259.667,223.833 259.333,224.167 259,224.5C 258.245,229.95 258.745,235.283 260.5,240.5C 259.754,244.132 259.421,247.798 259.5,251.5C 256.389,257.518 252.389,263.018 247.5,268C 246.167,268.667 244.833,268.667 243.5,268C 240.236,264.227 236.57,261.06 232.5,258.5C 225.212,248.967 217.212,239.967 208.5,231.5C 207.045,228.818 205.711,226.151 204.5,223.5C 202.178,221.588 199.512,220.255 196.5,219.5C 195.833,219.167 195.167,218.833 194.5,218.5C 194.167,217.5 193.5,216.833 192.5,216.5C 192.267,214.938 191.6,213.605 190.5,212.5C 189.559,210.534 188.559,208.534 187.5,206.5C 189.373,207.089 191.04,206.422 192.5,204.5C 193.429,203.311 193.762,201.978 193.5,200.5C 191.24,201.139 189.24,202.306 187.5,204C 186.5,204.667 185.5,204.667 184.5,204C 183.265,200.415 181.932,196.915 180.5,193.5C 181.675,193.719 182.675,193.386 183.5,192.5C 182.68,190.889 181.346,190.222 179.5,190.5C 179.338,192.824 178.172,194.491 176,195.5C 175.508,194.451 175.674,193.451 176.5,192.5C 174.833,191.5 173.5,190.167 172.5,188.5C 170.939,189.347 169.439,189.014 168,187.5C 167.333,186.5 167.333,185.5 168,184.5C 170.339,182.86 171.172,180.86 170.5,178.5C 167.454,179.329 165.787,181.329 165.5,184.5C 162.901,183.101 161.401,181.101 161,178.5C 162.376,177.295 163.542,175.962 164.5,174.5C 166.156,173.854 167.823,173.187 169.5,172.5C 172.196,174.44 173.529,173.773 173.5,170.5C 175.465,169.871 177.465,169.204 179.5,168.5C 180.772,168.57 181.938,168.903 183,169.5C 182.852,168.175 183.018,167.008 183.5,166C 186.738,164.632 190.072,164.299 193.5,165C 192.259,166.487 192.759,167.32 195,167.5C 199.798,167.559 204.632,167.226 209.5,166.5C 210.167,167.167 210.833,167.833 211.5,168.5C 215.325,166.855 219.325,166.188 223.5,166.5C 223.5,167.5 223.5,168.5 223.5,169.5C 220.242,170.068 216.909,170.234 213.5,170C 211.5,171.667 209.5,173.333 207.5,175C 208.108,175.87 208.941,176.37 210,176.5C 213.525,174.534 217.192,172.868 221,171.5C 222.67,176.694 224.17,176.694 225.5,171.5C 227.804,171.691 230.138,171.357 232.5,170.5 Z"/></g>
<g><path style="opacity:1" fill="#3180f4" d="M 186.5,162.5 C 189.167,162.5 191.833,162.5 194.5,162.5C 203.792,163.461 213.125,164.461 222.5,165.5C 225.054,166.606 227.721,167.439 230.5,168C 231.381,168.708 232.047,169.542 232.5,170.5C 230.138,171.357 227.804,171.691 225.5,171.5C 224.17,176.694 222.67,176.694 221,171.5C 217.192,172.868 213.525,174.534 210,176.5C 208.941,176.37 208.108,175.87 207.5,175C 209.5,173.333 211.5,171.667 213.5,170C 216.909,170.234 220.242,170.068 223.5,169.5C 223.5,168.5 223.5,167.5 223.5,166.5C 219.325,166.188 215.325,166.855 211.5,168.5C 210.833,167.833 210.167,167.167 209.5,166.5C 204.632,167.226 199.798,167.559 195,167.5C 192.759,167.32 192.259,166.487 193.5,165C 190.072,164.299 186.738,164.632 183.5,166C 183.018,167.008 182.852,168.175 183,169.5C 181.938,168.903 180.772,168.57 179.5,168.5C 177.465,169.204 175.465,169.871 173.5,170.5C 173.529,173.773 172.196,174.44 169.5,172.5C 167.823,173.187 166.156,173.854 164.5,174.5C 164.953,173.542 165.619,172.708 166.5,172C 173.106,168.53 179.773,165.363 186.5,162.5 Z"/></g>
<g><path style="opacity:1" fill="#e6ad08" d="M 144.5,175.5 C 145.259,177.436 146.259,179.269 147.5,181C 118.341,209.992 89.3414,239.159 60.5,268.5C 59.635,269.583 58.635,269.749 57.5,269C 53.8592,264.873 50.8592,260.373 48.5,255.5C 45.594,248.427 43.4273,241.093 42,233.5C 41.5004,226.508 41.3337,219.508 41.5,212.5C 43.5274,205.722 45.8607,199.056 48.5,192.5C 53.301,187.528 57.9676,182.362 62.5,177C 82.5402,162.067 104.54,158.734 128.5,167C 133.771,170.133 139.105,172.967 144.5,175.5 Z"/></g>
<g><path style="opacity:0.294" fill="#c2ddfb" d="M 242.5,175.5 C 246.522,177.522 249.522,180.522 251.5,184.5C 250.167,183.5 248.833,182.5 247.5,181.5C 245.117,180.115 243.45,178.115 242.5,175.5 Z"/></g>
<g><path style="opacity:0.137" fill="#b2d0fb" d="M 186.5,162.5 C 179.773,165.363 173.106,168.53 166.5,172C 165.619,172.708 164.953,173.542 164.5,174.5C 161.931,175.396 159.931,177.062 158.5,179.5C 162.256,183.247 165.59,187.247 168.5,191.5C 163.638,187.822 159.805,183.488 157,178.5C 165.07,169.933 174.903,164.6 186.5,162.5 Z"/></g>
<g><path style="opacity:1" fill="#6299ea" d="M 247.5,181.5 C 248.833,182.5 250.167,183.5 251.5,184.5C 251.5,185.167 251.5,185.833 251.5,186.5C 249.413,185.415 248.08,183.749 247.5,181.5 Z"/></g>
<g><path style="opacity:0.345" fill="#bedafe" d="M 251.5,184.5 C 253.262,185.262 254.262,186.596 254.5,188.5C 253.5,187.833 252.5,187.167 251.5,186.5C 251.5,185.833 251.5,185.167 251.5,184.5 Z"/></g>
<g><path style="opacity:0.275" fill="#bae2fe" d="M 254.5,188.5 C 255.906,188.973 256.573,189.973 256.5,191.5C 255.094,191.027 254.427,190.027 254.5,188.5 Z"/></g>
<g><path style="opacity:1" fill="#3381f1" d="M 164.5,174.5 C 163.542,175.962 162.376,177.295 161,178.5C 161.401,181.101 162.901,183.101 165.5,184.5C 165.787,181.329 167.454,179.329 170.5,178.5C 171.172,180.86 170.339,182.86 168,184.5C 167.333,185.5 167.333,186.5 168,187.5C 169.439,189.014 170.939,189.347 172.5,188.5C 173.5,190.167 174.833,191.5 176.5,192.5C 175.674,193.451 175.508,194.451 176,195.5C 178.172,194.491 179.338,192.824 179.5,190.5C 181.346,190.222 182.68,190.889 183.5,192.5C 182.675,193.386 181.675,193.719 180.5,193.5C 181.932,196.915 183.265,200.415 184.5,204C 185.5,204.667 186.5,204.667 187.5,204C 189.24,202.306 191.24,201.139 193.5,200.5C 193.762,201.978 193.429,203.311 192.5,204.5C 191.04,206.422 189.373,207.089 187.5,206.5C 188.559,208.534 189.559,210.534 190.5,212.5C 183.093,205.423 175.76,198.423 168.5,191.5C 165.59,187.247 162.256,183.247 158.5,179.5C 159.931,177.062 161.931,175.396 164.5,174.5 Z"/></g>
<g><path style="opacity:0.149" fill="#d5ecff" d="M 256.5,191.5 C 257.906,191.973 258.573,192.973 258.5,194.5C 257.833,194.167 257.167,193.833 256.5,193.5C 256.5,192.833 256.5,192.167 256.5,191.5 Z"/></g>
<g><path style="opacity:0.031" fill="#c2defd" d="M 168.5,191.5 C 175.76,198.423 183.093,205.423 190.5,212.5C 191.6,213.605 192.267,214.938 192.5,216.5C 183.799,208.8 175.799,200.467 168.5,191.5 Z"/></g>
<g><path style="opacity:0.565" fill="#fde9b5" d="M 48.5,192.5 C 45.8607,199.056 43.5274,205.722 41.5,212.5C 41.1667,212.5 40.8333,212.5 40.5,212.5C 41.5495,205.085 44.2162,198.418 48.5,192.5 Z"/></g>
<g><path style="opacity:0.196" fill="#c2dcfc" d="M 256.5,193.5 C 257.167,193.833 257.833,194.167 258.5,194.5C 260.931,198.111 262.597,202.111 263.5,206.5C 261.358,202.085 259.025,197.752 256.5,193.5 Z"/></g>
<g><path style="opacity:0.255" fill="#fae7ab" d="M 144.5,175.5 C 147.773,176.833 149.273,179.167 149,182.5C 119.5,212 90,241.5 60.5,271C 59.5,271.667 58.5,271.667 57.5,271C 48.5876,261.906 42.9209,251.073 40.5,238.5C 42.4363,244.462 45.103,250.129 48.5,255.5C 50.8592,260.373 53.8592,264.873 57.5,269C 58.635,269.749 59.635,269.583 60.5,268.5C 89.3414,239.159 118.341,209.992 147.5,181C 146.259,179.269 145.259,177.436 144.5,175.5 Z"/></g>
<g><path style="opacity:0.004" fill="#e6f1ff" d="M 192.5,216.5 C 193.5,216.833 194.167,217.5 194.5,218.5C 193.167,218.5 192.5,217.833 192.5,216.5 Z"/></g>
<g><path style="opacity:1" fill="#4d8aea" d="M 196.5,219.5 C 199.512,220.255 202.178,221.588 204.5,223.5C 205.711,226.151 207.045,228.818 208.5,231.5C 204.167,227.833 200.167,223.833 196.5,219.5 Z"/></g>
<g><path style="opacity:0.174" fill="#d1e8fe" d="M 264.5,210.5 C 266.539,218.111 266.872,225.777 265.5,233.5C 265.821,228.305 265.487,223.305 264.5,218.5C 264.5,215.833 264.5,213.167 264.5,210.5 Z"/></g>
<g><path style="opacity:0.435" fill="#faebb7" d="M 40.5,213.5 C 40.5,221.5 40.5,229.5 40.5,237.5C 37.9063,229.495 37.9063,221.495 40.5,213.5 Z"/></g>
<g><path style="opacity:0.771" fill="#95b9f2" d="M 264.5,218.5 C 265.487,223.305 265.821,228.305 265.5,233.5C 265.795,235.735 265.461,237.735 264.5,239.5C 264.167,239.5 263.833,239.5 263.5,239.5C 264.232,232.524 264.565,225.524 264.5,218.5 Z"/></g>
<g><path style="opacity:0.133" fill="#c1defd" d="M 194.5,218.5 C 195.167,218.833 195.833,219.167 196.5,219.5C 200.167,223.833 204.167,227.833 208.5,231.5C 217.212,239.967 225.212,248.967 232.5,258.5C 220.229,245.728 207.729,233.062 195,220.5C 194.536,219.906 194.369,219.239 194.5,218.5 Z"/></g>
<g><path style="opacity:1" fill="#e4b83d" d="M 40.5,212.5 C 40.8333,212.5 41.1667,212.5 41.5,212.5C 41.3337,219.508 41.5004,226.508 42,233.5C 43.4273,241.093 45.594,248.427 48.5,255.5C 45.103,250.129 42.4363,244.462 40.5,238.5C 40.5,238.167 40.5,237.833 40.5,237.5C 40.5,229.5 40.5,221.5 40.5,213.5C 40.5,213.167 40.5,212.833 40.5,212.5 Z"/></g>
<g><path style="opacity:1" fill="#3f85f2" d="M 232.5,170.5 C 235.83,172.162 239.164,173.828 242.5,175.5C 243.45,178.115 245.117,180.115 247.5,181.5C 248.08,183.749 249.413,185.415 251.5,186.5C 252.5,187.167 253.5,187.833 254.5,188.5C 254.427,190.027 255.094,191.027 256.5,191.5C 256.5,192.167 256.5,192.833 256.5,193.5C 259.025,197.752 261.358,202.085 263.5,206.5C 264.434,207.568 264.768,208.901 264.5,210.5C 264.5,213.167 264.5,215.833 264.5,218.5C 264.565,225.524 264.232,232.524 263.5,239.5C 262.488,243.516 261.488,247.516 260.5,251.5C 260.167,251.5 259.833,251.5 259.5,251.5C 259.421,247.798 259.754,244.132 260.5,240.5C 258.745,235.283 258.245,229.95 259,224.5C 259.333,224.167 259.667,223.833 260,223.5C 260.18,226.956 260.847,230.289 262,233.5C 263.581,227.277 263.915,220.944 263,214.5C 259.582,211.254 258.415,207.42 259.5,203C 258.622,201.2 257.955,199.367 257.5,197.5C 256.178,197.67 255.011,197.337 254,196.5C 253.433,193.832 252.933,191.166 252.5,188.5C 250.362,188.703 248.695,189.703 247.5,191.5C 246.209,188.544 244.209,186.21 241.5,184.5C 244.784,181.024 244.117,179.357 239.5,179.5C 239.5,178.5 239.5,177.5 239.5,176.5C 237.305,177.608 235.305,177.441 233.5,176C 234.022,175.439 234.355,174.772 234.5,174C 233.571,172.923 232.904,171.756 232.5,170.5 Z"/></g>
<g><path style="opacity:0.11" fill="#c9e6fe" d="M 263.5,239.5 C 263.833,239.5 264.167,239.5 264.5,239.5C 264.139,243.915 262.806,247.915 260.5,251.5C 261.488,247.516 262.488,243.516 263.5,239.5 Z"/></g>
<g><path style="opacity:0.518" fill="#aacbf6" d="M 259.5,251.5 C 259.833,251.5 260.167,251.5 260.5,251.5C 257.8,259.061 253.467,265.561 247.5,271C 246.056,271.781 244.723,271.614 243.5,270.5C 239.811,266.48 236.145,262.48 232.5,258.5C 236.57,261.06 240.236,264.227 243.5,268C 244.833,268.667 246.167,268.667 247.5,268C 252.389,263.018 256.389,257.518 259.5,251.5 Z"/></g>
</svg>
